<mxfile host="app.diagrams.net" modified="2024-06-21T22:26:02.350Z" agent="Mozilla/5.0 (Windows NT 10.0; Win64; x64) AppleWebKit/537.36 (KHTML, like Gecko) Chrome/121.0.0.0 Safari/537.36" version="24.6.1" etag="hlq7eGigPd0h-MErX-j5" type="github">
  <diagram name="PÃ¡gina-1" id="Zarotwmva4-uxGkU4Py_">
    <mxGraphModel>
      <root>
        <mxCell id="0" />
        <mxCell id="1" parent="0" />
      </root>
    </mxGraphModel>
  </diagram>
</mxfile>
